<?xml version="1.0" standalone="no"?>
<!DOCTYPE svg PUBLIC "-//W3C//DTD SVG 20010904//EN"
 "http://www.w3.org/TR/2001/REC-SVG-20010904/DTD/svg10.dtd">
<svg version="1.0" xmlns="http://www.w3.org/2000/svg"
 width="512.000000pt" height="512.000000pt" viewBox="0 0 512.000000 512.000000"
 preserveAspectRatio="xMidYMid meet">

<g transform="translate(0.000000,512.000000) scale(0.100000,-0.100000)"
fill="#4F8FF0" stroke="none">
<path d="M1520 4387 c-49 -16 -133 -102 -148 -153 -7 -24 -12 -100 -12 -178
l0 -136 -496 0 c-361 0 -508 -3 -538 -12 -26 -8 -60 -31 -91 -63 -32 -31 -55
-65 -63 -91 -16 -54 -17 -721 -1 -777 15 -54 74 -115 144 -149 33 -15 66 -28
73 -28 8 0 12 -23 12 -80 0 -65 -3 -80 -15 -80 -9 0 -27 -11 -40 -25 l-25 -24
0 -832 c0 -602 3 -842 12 -870 16 -55 73 -118 132 -145 l51 -24 1353 0 c847 0
1360 4 1371 10 10 5 24 23 31 40 12 30 13 30 91 30 65 0 79 -3 79 -15 0 -9 11
-27 25 -40 l24 -25 431 0 431 0 24 25 c30 29 32 74 6 106 -19 23 -24 24 -200
27 l-181 3 0 575 0 575 -25 24 c-13 14 -31 25 -40 25 -12 0 -15 15 -15 80 l0
80 29 0 c66 0 188 -32 299 -79 65 -27 134 -54 153 -59 21 -5 33 -14 32 -23 -2
-8 -64 -151 -138 -318 -81 -183 -135 -316 -135 -335 0 -17 7 -58 15 -91 52
-198 204 -306 413 -293 198 13 329 134 364 335 l11 69 -141 319 c-78 176 -138
322 -134 326 4 3 33 16 65 29 73 29 127 77 127 114 0 33 -49 86 -79 86 -11 0
-41 -13 -66 -29 -101 -64 -217 -66 -361 -6 -155 64 -249 95 -313 101 l-61 7 0
99 c0 92 -2 101 -25 123 -13 14 -31 25 -40 25 -12 0 -15 14 -15 78 l0 78 48
17 c69 25 143 85 170 137 22 43 22 51 22 403 0 253 -4 372 -12 401 -16 55 -99
138 -154 154 -30 9 -177 12 -538 12 l-496 0 0 136 c0 78 -5 154 -12 178 -16
55 -99 138 -154 154 -55 16 -1222 15 -1274 -1z m1255 -172 c24 -23 25 -29 25
-160 l0 -135 -640 0 -640 0 0 135 c0 131 1 137 25 160 l24 25 591 0 591 0 24
-25z m1178 -466 c14 -6 30 -22 36 -36 15 -32 15 -666 1 -694 -6 -10 -27 -27
-48 -38 -20 -10 -289 -98 -597 -195 -308 -98 -588 -186 -623 -197 -49 -16 -66
-27 -78 -50 -8 -17 -12 -38 -9 -48 4 -15 -6 -21 -57 -35 -35 -10 -71 -21 -80
-23 -17 -5 -18 7 -18 156 0 159 -1 162 -25 186 l-24 25 -271 0 -271 0 -24 -25
c-24 -24 -25 -27 -25 -186 0 -149 -1 -161 -17 -156 -113 31 -143 43 -138 55 3
7 -2 28 -9 47 -14 32 -21 36 -143 74 -980 309 -1165 370 -1188 391 l-25 23 0
333 c0 348 3 373 44 392 31 15 3556 16 3589 1z m-1633 -1361 c0 -225 -2 -258
-19 -294 -27 -60 -73 -89 -141 -88 -62 0 -97 18 -133 68 -21 30 -22 41 -25
299 l-3 267 160 0 161 0 0 -252z m2332 -636 c48 -108 90 -205 94 -214 6 -17
-7 -18 -185 -18 -105 0 -191 3 -191 8 0 12 184 422 190 422 3 0 44 -89 92
-198z m-1152 -404 c0 -7 -9 -27 -19 -44 -83 -136 -319 -136 -402 0 -35 57 -38
56 201 56 169 0 220 -3 220 -12z m1280 0 c0 -23 -37 -75 -72 -101 -112 -85
-296 -49 -357 70 -6 12 -11 26 -11 32 0 8 71 11 220 11 169 0 220 -3 220 -12z"/>
</g>
</svg>
